<?xml version="1.0" encoding="UTF-8"?>
<svg width="51px" height="32px" viewBox="0 0 51 32" version="1.1" xmlns="http://www.w3.org/2000/svg" xmlns:xlink="http://www.w3.org/1999/xlink">
    <title>Shape</title>
    <g id="Page-1" stroke="none" stroke-width="1" fill="none" fill-rule="evenodd">
        <g id="1440p" transform="translate(-25.000000, -16.000000)" fill="#474747" fill-rule="nonzero">
            <path d="M26.7777778,16 C26.3125004,16 25.8368053,16.1631947 25.5,16.5 C25.1631947,16.8368053 25,17.3125004 25,17.7777778 L25,23.1111111 C25,23.5763893 25.1631947,24.0520836 25.5,24.3888889 C25.8368053,24.7256942 26.3125004,24.8888889 26.7777778,24.8888889 L33.8888889,24.8888889 C34.3541671,24.8888889 34.8298613,24.7256942 35.1666667,24.3888889 C35.503472,24.0520836 35.6666667,23.5763893 35.6666667,23.1111111 L35.6666667,17.7777778 C35.6666667,17.3125004 35.503472,16.8368053 35.1666667,16.5 C34.8298613,16.1631947 34.3541671,16 33.8888889,16 L26.7777778,16 Z M40.1111111,16 C39.6458338,16 39.1701387,16.1631947 38.8333333,16.5 C38.496528,16.8368053 38.3333333,17.3125004 38.3333333,17.7777778 L38.3333333,23.1111111 C38.3333333,23.5763893 38.496528,24.0520836 38.8333333,24.3888889 C39.1701387,24.7256942 39.6458338,24.8888889 40.1111111,24.8888889 L47.2222222,24.8888889 C47.6875004,24.8888889 48.1631947,24.7256942 48.5,24.3888889 C48.8368053,24.0520836 49,23.5763893 49,23.1111111 L49,17.7777778 C49,17.3125004 48.8368053,16.8368053 48.5,16.5 C48.1631947,16.1631947 47.6875004,16 47.2222222,16 L40.1111111,16 Z M53.4444444,16 C52.9791671,16 52.503472,16.1631947 52.1666667,16.5 C51.8298613,16.8368053 51.6666667,17.3125004 51.6666667,17.7777778 L51.6666667,23.1111111 C51.6666667,23.5763893 51.8298613,24.0520836 52.1666667,24.3888889 C52.503472,24.7256942 52.9791671,24.8888889 53.4444444,24.8888889 L60.5555556,24.8888889 C61.0208338,24.8888889 61.496528,24.7256942 61.8333333,24.3888889 C62.1701387,24.0520836 62.3333333,23.5763893 62.3333333,23.1111111 L62.3333333,17.7777778 C62.3333333,17.3125004 62.1701387,16.8368053 61.8333333,16.5 C61.496528,16.1631947 61.0208338,16 60.5555556,16 L53.4444444,16 Z M26.7777778,17.7777778 L33.8888889,17.7777778 L33.8888889,23.1111111 L26.7777778,23.1111111 L26.7777778,17.7777778 Z M40.1111111,17.7777778 L47.2222222,17.7777778 L47.2222222,23.1111111 L40.1111111,23.1111111 L40.1111111,17.7777778 Z M53.4444444,17.7777778 L60.5555556,17.7777778 L60.5555556,23.1111111 L53.4444444,23.1111111 L53.4444444,17.7777778 Z M26.7777778,27.5555556 C26.3125004,27.5555556 25.8368053,27.7187502 25.5,28.0555556 C25.1631947,28.3923609 25,28.868056 25,29.3333333 L25,34.6666667 C25,35.1319449 25.1631947,35.6076391 25.5,35.9444444 C25.8368053,36.2812498 26.3125004,36.4444444 26.7777778,36.4444444 L33.8888889,36.4444444 C34.3541671,36.4444444 34.8298613,36.2812498 35.1666667,35.9444444 C35.503472,35.6076391 35.6666667,35.1319449 35.6666667,34.6666667 L35.6666667,29.3333333 C35.6666667,28.868056 35.503472,28.3923609 35.1666667,28.0555556 C34.8298613,27.7187502 34.3541671,27.5555556 33.8888889,27.5555556 L26.7777778,27.5555556 Z M40.1111111,27.5555556 C39.6458338,27.5555556 39.1701387,27.7187502 38.8333333,28.0555556 C38.496528,28.3923609 38.3333333,28.868056 38.3333333,29.3333333 L38.3333333,34.6666667 C38.3333333,35.1319449 38.496528,35.6076391 38.8333333,35.9444444 C39.1701387,36.2812498 39.6458338,36.4444444 40.1111111,36.4444444 L47.2222222,36.4444444 C47.6875004,36.4444444 48.1631947,36.2812498 48.5,35.9444444 C48.8368053,35.6076391 49,35.1319449 49,34.6666667 L49,29.3333333 C49,28.868056 48.8368053,28.3923609 48.5,28.0555556 C48.1631947,27.7187502 47.6875004,27.5555556 47.2222222,27.5555556 L40.1111111,27.5555556 Z M53.4444444,27.5555556 C52.9791671,27.5555556 52.503472,27.7187502 52.1666667,28.0555556 C51.8298613,28.3923609 51.6666667,28.868056 51.6666667,29.3333333 L51.6666667,34.6666667 C51.6666667,35.1319449 51.8298613,35.6076391 52.1666667,35.9444444 C52.503472,36.2812498 52.9791671,36.4444444 53.4444444,36.4444444 L60.5555556,36.4444444 C61.0208338,36.4444444 61.496528,36.2812498 61.8333333,35.9444444 C62.1701387,35.6076391 62.3333333,35.1319449 62.3333333,34.6666667 L62.3333333,29.3333333 C62.3333333,28.868056 62.1701387,28.3923609 61.8333333,28.0555556 C61.496528,27.7187502 61.0208338,27.5555556 60.5555556,27.5555556 L53.4444444,27.5555556 Z M26.7777778,29.3333333 L33.8888889,29.3333333 L33.8888889,34.6666667 L26.7777778,34.6666667 L26.7777778,29.3333333 Z M40.1111111,29.3333333 L47.2222222,29.3333333 L47.2222222,34.6666667 L40.1111111,34.6666667 L40.1111111,29.3333333 Z M53.4444444,29.3333333 L60.5555556,29.3333333 L60.5555556,34.6666667 L53.4444444,34.6666667 L53.4444444,29.3333333 Z M26.7777778,39.1111111 C26.3125004,39.1111111 25.8368053,39.2743058 25.5,39.6111111 C25.1631947,39.9479164 25,40.4236116 25,40.8888889 L25,46.2222222 C25,46.6875004 25.1631947,47.1631947 25.5,47.5 C25.8368053,47.8368053 26.3125004,48 26.7777778,48 L33.8888889,48 C34.3541671,48 34.8298613,47.8368053 35.1666667,47.5 C35.503472,47.1631947 35.6666667,46.6875004 35.6666667,46.2222222 L35.6666667,40.8888889 C35.6666667,40.4236116 35.503472,39.9479164 35.1666667,39.6111111 C34.8298613,39.2743058 34.3541671,39.1111111 33.8888889,39.1111111 L26.7777778,39.1111111 Z M40.1111111,39.1111111 C39.6458338,39.1111111 39.1701387,39.2743058 38.8333333,39.6111111 C38.496528,39.9479164 38.3333333,40.4236116 38.3333333,40.8888889 L38.3333333,46.2222222 C38.3333333,46.6875004 38.496528,47.1631947 38.8333333,47.5 C39.1701387,47.8368053 39.6458338,48 40.1111111,48 L47.2222222,48 C47.6875004,48 48.1631947,47.8368053 48.5,47.5 C48.8368053,47.1631947 49,46.6875004 49,46.2222222 L49,40.8888889 C49,40.4236116 48.8368053,39.9479164 48.5,39.6111111 C48.1631947,39.2743058 47.6875004,39.1111111 47.2222222,39.1111111 L40.1111111,39.1111111 Z M53.4444444,39.1111111 C52.9791671,39.1111111 52.503472,39.2743058 52.1666667,39.6111111 C51.8298613,39.9479164 51.6666667,40.4236116 51.6666667,40.8888889 L51.6666667,46.2222222 C51.6666667,46.6875004 51.8298613,47.1631947 52.1666667,47.5 C52.503472,47.8368053 52.9791671,48 53.4444444,48 L60.5555556,48 C61.0208338,48 61.496528,47.8368053 61.8333333,47.5 C62.1701387,47.1631947 62.3333333,46.6875004 62.3333333,46.2222222 L62.3333333,40.8888889 C62.3333333,40.4236116 62.1701387,39.9479164 61.8333333,39.6111111 C61.496528,39.2743058 61.0208338,39.1111111 60.5555556,39.1111111 L53.4444444,39.1111111 Z M26.7777778,40.8888889 L33.8888889,40.8888889 L33.8888889,46.2222222 L26.7777778,46.2222222 L26.7777778,40.8888889 Z M40.1111111,40.8888889 L47.2222222,40.8888889 L47.2222222,46.2222222 L40.1111111,46.2222222 L40.1111111,40.8888889 Z M73.8888889,39.1111111 C74.3541671,39.1111111 74.8298613,39.2743058 75.1666667,39.6111111 C75.503472,39.9479164 75.6666667,40.4236116 75.6666667,40.8888889 L75.6666667,40.8888889 L75.6666667,46.2222222 C75.6666667,46.6875004 75.503472,47.1631947 75.1666667,47.5 C74.8298613,47.8368053 74.3541671,48 73.8888889,48 L73.8888889,48 L66.7777778,48 C66.3125004,48 65.8368053,47.8368053 65.5,47.5 C65.1631947,47.1631947 65,46.6875004 65,46.2222222 L65,46.2222222 L65,40.8888889 C65,40.4236116 65.1631947,39.9479164 65.5,39.6111111 C65.8368053,39.2743058 66.3125004,39.1111111 66.7777778,39.1111111 L66.7777778,39.1111111 Z M60.5555556,40.8888889 L60.5555556,46.2222222 L53.4444444,46.2222222 L53.4444444,40.8888889 L60.5555556,40.8888889 Z M73.8888889,40.8888889 L66.7777778,40.8888889 L66.7777778,46.2222222 L73.8888889,46.2222222 L73.8888889,40.8888889 Z M73.8888889,27.5555556 C74.3541671,27.5555556 74.8298613,27.7187502 75.1666667,28.0555556 C75.503472,28.3923609 75.6666667,28.868056 75.6666667,29.3333333 L75.6666667,29.3333333 L75.6666667,34.6666667 C75.6666667,35.1319449 75.503472,35.6076391 75.1666667,35.9444444 C74.8298613,36.2812498 74.3541671,36.4444444 73.8888889,36.4444444 L73.8888889,36.4444444 L66.7777778,36.4444444 C66.3125004,36.4444444 65.8368053,36.2812498 65.5,35.9444444 C65.1631947,35.6076391 65,35.1319449 65,34.6666667 L65,34.6666667 L65,29.3333333 C65,28.868056 65.1631947,28.3923609 65.5,28.0555556 C65.8368053,27.7187502 66.3125004,27.5555556 66.7777778,27.5555556 L66.7777778,27.5555556 Z M73.8888889,29.3333333 L66.7777778,29.3333333 L66.7777778,34.6666667 L73.8888889,34.6666667 L73.8888889,29.3333333 Z M73.8888889,16 C74.3541671,16 74.8298613,16.1631947 75.1666667,16.5 C75.503472,16.8368053 75.6666667,17.3125004 75.6666667,17.7777778 L75.6666667,17.7777778 L75.6666667,23.1111111 C75.6666667,23.5763893 75.503472,24.0520836 75.1666667,24.3888889 C74.8298613,24.7256942 74.3541671,24.8888889 73.8888889,24.8888889 L73.8888889,24.8888889 L66.7777778,24.8888889 C66.3125004,24.8888889 65.8368053,24.7256942 65.5,24.3888889 C65.1631947,24.0520836 65,23.5763893 65,23.1111111 L65,23.1111111 L65,17.7777778 C65,17.3125004 65.1631947,16.8368053 65.5,16.5 C65.8368053,16.1631947 66.3125004,16 66.7777778,16 L66.7777778,16 Z M73.8888889,17.7777778 L66.7777778,17.7777778 L66.7777778,23.1111111 L73.8888889,23.1111111 L73.8888889,17.7777778 Z" id="Shape"></path>
        </g>
    </g>
</svg>