<?xml version="1.0" encoding="UTF-8"?>
<svg width="32px" height="32px" viewBox="0 0 32 32" version="1.1" xmlns="http://www.w3.org/2000/svg" xmlns:xlink="http://www.w3.org/1999/xlink">
    <title>Combined Shape</title>
    <g id="Page-1" stroke="none" stroke-width="1" fill="none" fill-rule="evenodd">
        <g id="Custom-Preset-6" fill="#2660A4">
            <path d="M16,0 C24.836556,0 32,7.163444 32,16 C32,24.836556 24.836556,32 16,32 C7.163444,32 0,24.836556 0,16 C0,7.163444 7.163444,0 16,0 Z M13.9135803,17.0434783 L8.38271607,17.0434783 C8.02083364,17.0434783 7.65084857,17.1711958 7.38888889,17.4347827 C7.12692921,17.6983694 7,18.0706525 7,18.4347826 L7,22.6086957 C7,22.9728265 7.12692921,23.3451089 7.38888889,23.6086957 C7.65084857,23.8722825 8.02083364,24 8.38271607,24 L13.9135803,24 C14.2754633,24 14.6454477,23.8722825 14.9074074,23.6086957 C15.1693671,23.3451089 15.2962963,22.9728265 15.2962963,22.6086957 L15.2962963,18.4347826 C15.2962963,18.0706525 15.1693671,17.6983694 14.9074074,17.4347827 C14.6454477,17.1711958 14.2754633,17.0434783 13.9135803,17.0434783 Z M24.2839506,17.0434783 L18.7530864,17.0434783 C18.3912041,17.0434783 18.021219,17.1711958 17.7592592,17.4347827 C17.4972996,17.6983694 17.3703703,18.0706525 17.3703703,18.4347826 L17.3703703,22.6086957 C17.3703703,22.9728265 17.4972996,23.3451089 17.7592592,23.6086957 C18.021219,23.8722825 18.3912041,24 18.7530864,24 L24.2839506,24 C24.6458336,24 25.0158181,23.8722825 25.2777778,23.6086957 C25.5397375,23.3451089 25.6666667,22.9728265 25.6666667,22.6086957 L25.6666667,18.4347826 C25.6666667,18.0706525 25.5397375,17.6983694 25.2777778,17.4347827 C25.0158181,17.1711958 24.6458336,17.0434783 24.2839506,17.0434783 Z M13.9135803,18.4347826 L13.9135803,22.6086957 L8.38271607,22.6086957 L8.38271607,18.4347826 L13.9135803,18.4347826 Z M24.2839506,18.4347826 L24.2839506,22.6086957 L18.7530864,22.6086957 L18.7530864,18.4347826 L24.2839506,18.4347826 Z M13.9135803,8 L8.38271607,8 C8.02083364,8 7.65084857,8.12771759 7.38888889,8.39130435 C7.12692921,8.65489111 7,9.02717423 7,9.39130437 L7,13.5652174 C7,13.9293482 7.12692921,14.3016307 7.38888889,14.5652174 C7.65084857,14.8288042 8.02083364,14.9565218 8.38271607,14.9565218 L13.9135803,14.9565218 C14.2754633,14.9565218 14.6454477,14.8288042 14.9074074,14.5652174 C15.1693671,14.3016307 15.2962963,13.9293482 15.2962963,13.5652174 L15.2962963,9.39130437 C15.2962963,9.02717423 15.1693671,8.65489111 14.9074074,8.39130435 C14.6454477,8.12771759 14.2754633,8 13.9135803,8 Z M24.2839506,8 L18.7530864,8 C18.3912041,8 18.021219,8.12771759 17.7592592,8.39130435 C17.4972996,8.65489111 17.3703703,9.02717423 17.3703703,9.39130437 L17.3703703,13.5652174 C17.3703703,13.9293482 17.4972996,14.3016307 17.7592592,14.5652174 C18.021219,14.8288042 18.3912041,14.9565218 18.7530864,14.9565218 L24.2839506,14.9565218 C24.6458336,14.9565218 25.0158181,14.8288042 25.2777778,14.5652174 C25.5397375,14.3016307 25.6666667,13.9293482 25.6666667,13.5652174 L25.6666667,9.39130437 C25.6666667,9.02717423 25.5397375,8.65489111 25.2777778,8.39130435 C25.0158181,8.12771759 24.6458336,8 24.2839506,8 Z M13.9135803,9.39130437 L13.9135803,13.5652174 L8.38271607,13.5652174 L8.38271607,9.39130437 L13.9135803,9.39130437 Z M24.2839506,9.39130437 L24.2839506,13.5652174 L18.7530864,13.5652174 L18.7530864,9.39130437 L24.2839506,9.39130437 Z" id="Combined-Shape"></path>
        </g>
    </g>
</svg>