<?xml version="1.0" encoding="UTF-8"?>
<svg width="268px" height="256px" viewBox="0 0 268 256" version="1.1" xmlns="http://www.w3.org/2000/svg" xmlns:xlink="http://www.w3.org/1999/xlink">
    <title>to-try</title>
    <g id="Page-1" stroke="none" stroke-width="1" fill="none" fill-rule="evenodd">
        <g id="1440p" transform="translate(-1018.000000, -399.000000)" fill="#F2F2F2" fill-rule="nonzero">
            <path d="M1151.56522,399 C1145.41805,399 1140.43478,403.983265 1140.43478,410.130435 C1140.43478,416.277604 1145.41805,421.26087 1151.56522,421.26087 C1157.71239,421.26087 1162.69565,416.277604 1162.69565,410.130435 C1162.69565,403.983265 1157.71239,399 1151.56522,399 Z M1065,434.869565 C1058.85283,434.869565 1053.86956,439.85283 1053.86956,445.999999 C1053.86956,452.147169 1058.85283,457.130434 1065,457.130434 C1071.14717,457.130434 1076.13043,452.147169 1076.13043,445.999999 C1076.13043,439.85283 1071.14717,434.869565 1065,434.869565 Z M1238.13044,434.869565 C1231.98327,434.869565 1227,439.85283 1227,445.999999 C1227,452.147169 1231.98327,457.130434 1238.13044,457.130434 C1244.27761,457.130434 1249.26087,452.147169 1249.26087,445.999999 C1249.26087,439.85283 1244.27761,434.869565 1238.13044,434.869565 Z M1150.21739,454.673913 C1109.58017,455.37513 1075.20887,489.037218 1073.71739,529.652171 C1072.52644,561.88591 1091.08243,589.92539 1118.17391,602.847825 L1118.17391,655 L1184.95652,655 L1184.95652,602.847825 C1211.23548,590.314955 1229.47826,563.563478 1229.47826,532.565217 C1229.47826,489.145391 1193.79304,453.928174 1150.21739,454.673913 Z M1029.13043,521.434783 C1022.98327,521.434783 1018,526.418048 1018,532.565217 C1018,538.712387 1022.98327,543.695652 1029.13043,543.695652 C1035.2776,543.695652 1040.26087,538.712387 1040.26087,532.565217 C1040.26087,526.418048 1035.2776,521.434783 1029.13043,521.434783 Z M1274,521.434783 C1267.85283,521.434783 1262.86957,526.418048 1262.86957,532.565217 C1262.86957,538.712387 1267.85283,543.695652 1274,543.695652 C1280.14717,543.695652 1285.13043,538.712387 1285.13043,532.565217 C1285.13043,526.418048 1280.14717,521.434783 1274,521.434783 Z M1065,608.000003 C1058.85283,608.000003 1053.86956,612.983268 1053.86956,619.130438 C1053.86956,625.277607 1058.85283,630.260872 1065,630.260872 C1071.14717,630.260872 1076.13043,625.277607 1076.13043,619.130438 C1076.13043,612.983268 1071.14717,608.000003 1065,608.000003 Z M1238.13044,608.000003 C1231.98327,608.000003 1227,612.983268 1227,619.130438 C1227,625.277607 1231.98327,630.260872 1238.13044,630.260872 C1244.27761,630.260872 1249.26087,625.277607 1249.26087,619.130438 C1249.26087,612.983268 1244.27761,608.000003 1238.13044,608.000003 Z" id="to-try"></path>
        </g>
    </g>
</svg>